# xmcd
# 
# Track frame offsets:
#     150
#     11642
#     12372
#     22860
#     23990
#     33945
#     63967
#     105530
#     174390
#     177945
#     195940
#     203487
#     203975
#     213897
#     224937
#     237152
#     247615
#     259857
#     271415
#     272305
#     286957
#     299882
#     311080
#     334672
# 
# Disc length: 4600
# 
# Revision: 6
# Processed by: cddbd v1.5.2PL0 Copyright (c) Steve Scherf et al.
# Submitted via: fre:ac v1.0.31
# 
DISCID=5711f618
DTITLE=The Beach Boys - Good Vibrations - Thirty Years Of The Beach Boys Disc 5
DYEAR=1993
DGENRE=Rock/Pop
TTITLE0=In My Room  (Demo)
TTITLE1=Radio Spot #1
TTITLE2=I Get Around  (Track Only)
TTITLE3=Radio Spot #2
TTITLE4=Dance, Dance, Dance  (Tracking Session)
TTITLE5=Hang On To Your Ego  (Sessions)
TTITLE6=God Only Knows  (Tracking Session)
TTITLE7=Good Vibrations  (Sessions)
TTITLE8=Heroes And Villains  (Track Only)
TTITLE9=Cabinessence  (Track Only)
TTITLE10=Surf's Up  (Track Only)
TTITLE11=Radio Spot #3
TTITLE12=All Summer Long  (Vocals)
TTITLE13=Wendy  (Vocals)
TTITLE14=Hushabye  (Vocals)
TTITLE15=When I Grow Up To Be A Man  (Vocals)
TTITLE16=Wouldn't It Be Nice  (Vocals)
TTITLE17=California Girls  (Vocals)
TTITLE18=Radio Spot #4
TTITLE19=Concert Intro - Surfin' U.S.A.  (Live 1964)
TTITLE20=Surfer Girl  (Live 1964)
TTITLE21=Be True To Your School  (Live 1964)
TTITLE22=Good Vibrations  (Live 1966)
TTITLE23=Surfer Girl  (Live In Hawaii Rehearsals 1967)
EXTD=
EXTT0=
EXTT1=
EXTT2=
EXTT3=
EXTT4=
EXTT5=
EXTT6=
EXTT7=
EXTT8=
EXTT9=
EXTT10=
EXTT11=
EXTT12=
EXTT13=
EXTT14=
EXTT15=
EXTT16=
EXTT17=
EXTT18=
EXTT19=
EXTT20=
EXTT21=
EXTT22=
EXTT23=
PLAYORDER=
